<svg xmlns="http://www.w3.org/2000/svg" viewBox="0 0 96.7 59.31"><defs><style>.cls-1{fill:#e76f3d;}.cls-2{fill:#feab6b;}</style></defs><title>preview-streamAsset 3</title><g id="Layer_2" data-name="Layer 2"><g id="Layer_1-2" data-name="Layer 1"><path class="cls-1" d="M28.94,1.2l8.47,56.91H22.28l-.79-10.23h-5.3L15.3,58.11H0L7.55,1.2ZM21.1,37.79Q20,28.13,18.84,13.89,16.59,30.24,16,37.79Z"/><path class="cls-2" d="M64.5,18.42H50.75V14.2c0-2-.17-3.22-.53-3.76a1.92,1.92,0,0,0-1.75-.81,2.26,2.26,0,0,0-2,1.09A6.42,6.42,0,0,0,45.76,14a9.41,9.41,0,0,0,.77,4.29q.73,1.44,4.18,3.48,9.88,5.86,12.45,9.63t2.57,12.13q0,6.07-1.43,9a11.11,11.11,0,0,1-5.5,4.84,21.77,21.77,0,0,1-9.49,2,21.21,21.21,0,0,1-10.14-2.25,11,11,0,0,1-5.5-5.73,29.26,29.26,0,0,1-1.31-9.88V37.72H46.11v6.93c0,2.13.19,3.5.58,4.11a2.25,2.25,0,0,0,2.06.92,2.41,2.41,0,0,0,2.19-1.16,6.66,6.66,0,0,0,.73-3.45q0-5-1.38-6.57a42.35,42.35,0,0,0-6.92-5.17A68,68,0,0,1,36.06,28a12.24,12.24,0,0,1-3-4.57A20,20,0,0,1,31.91,16c0-4.36.55-7.55,1.67-9.57A11.21,11.21,0,0,1,39,1.71,21.51,21.51,0,0,1,48,0,23.49,23.49,0,0,1,57.8,1.86c2.71,1.25,4.5,2.81,5.38,4.7s1.32,5.09,1.32,9.61Z"/><path class="cls-1" d="M96.7,1.2V58.11H81.89V34.21H77.46v23.9H62.66V1.2h14.8V21.55h4.43V1.2Z"/></g></g></svg>